<?xml version="1.0" encoding="utf-8"?>
<!-- Generator: Adobe Illustrator 23.0.0, SVG Export Plug-In . SVG Version: 6.00 Build 0)  -->
<svg version="1.1" id="Layer_1" xmlns="http://www.w3.org/2000/svg" xmlns:xlink="http://www.w3.org/1999/xlink" x="0px" y="0px"
	 viewBox="0 0 495 495" style="enable-background:new 0 0 495 495;" xml:space="preserve">
<style type="text/css">
	.st0{fill:#FFFFFF;}
</style>
<path class="st0" d="M255.9,221.5c0-41.2-31.5-75.5-72.5-79c-41-3.5-77.9,24.9-85,65.4c-7,40.6,18.1,79.8,57.9,90.3v24.7h-28.8
	c-22.2,0-27.7,16.5-30.7,25.4c-0.5,1.6-1.1,3.1-1.8,4.7c-6.7,4.1-12.9,6.1-18.8,6.1h-7.7v-14.1c0-3.3-2.7-6-6-6H8c-3.3,0-6,2.7-6,6
	V485c0,3.3,2.7,6,6,6h54.7c3.3,0,6-2.7,6-6v-11.8h6.6c14.7,0,29.2,4.1,41.7,11.9c14.7,9.1,31.1,9.9,48,9.9h44.5
	c7.9,0,15.1-4.4,18.8-11.3c3.7-7,3.2-15.4-1.3-21.9c5.9-3.3,9.8-9.2,10.6-15.9c0.8-6.7-1.6-13.4-6.5-18c4.2-4,6.6-9.6,6.6-15.4
	c0.1-5.8-2.3-11.4-6.4-15.6c5.4-5.1,7.6-12.8,5.7-20c-1.9-7.2-7.6-12.8-14.9-14.5c10.7-5.3,17.3-17.3,17.3-33v-0.6c0-3.3-2.7-6-6-6
	h-36.7v-24.7C231.5,288.9,255.8,257.5,255.9,221.5z M184.8,361.9h-16.5v-61.5c5.5,0.6,11,0.6,16.5,0V361.9z M109.2,221.5
	c0-35.4,27.4-64.7,62.7-67.2c35.3-2.4,66.5,22.9,71.3,57.9c4.9,35.1-18.2,67.9-52.9,75.2c-19.9,4.2-40.5-0.8-56.3-13.6
	C118.4,261,109.2,241.8,109.2,221.5z M56.7,479H14V351.1h42.7V479z M225.8,382.2c0,4.6-3.7,8.3-8.3,8.3h-13.2c-0.3,0-0.6,0-0.9,0.1
	H195c-3.3,0-6,2.7-6,6c0,3.3,2.7,6,6,6h21c5.4,0.1,9.7,4.4,9.7,9.8s-4.3,9.7-9.7,9.8h-21c-3.3,0-6,2.7-6,6c0,3.3,2.7,6,6,6h21.5
	c3.3,0,6.4,1.7,8.1,4.6c1.7,2.9,1.7,6.5,0,9.3c-1.7,2.9-4.8,4.7-8.1,4.6h-31c-3.3,0-6,2.7-6,6c0,3.3,2.7,6,6,6h24.1
	c3.3,0,6.4,1.7,8.1,4.6c1.7,2.9,1.7,6.4,0,9.3c-1.7,2.9-4.7,4.6-8.1,4.6H165c-15.1,0-29.7-0.6-41.7-8.1c-14.4-9-31.1-13.7-48-13.7
	h-6.6v-90.1h7.7c8.3,0,16.7-2.7,25.6-8.2c3.5-2.2,4.8-6.2,6.3-10.8c3.3-10.1,6.7-17.2,19.3-17.2h28.8v20.8c-0.9-3-3.9-4.8-6.9-4.2
	c-3,0.6-5.1,3.4-4.8,6.5c1,9,8.6,15.9,17.7,15.9h55.2C222.1,373.9,225.8,377.6,225.8,382.2z M227.1,334.9
	c-1.1,7.6-4.9,18.6-18.4,18.6h-11.9v-18.6L227.1,334.9z"/>
<path class="st0" d="M487,196.9h-54.7c-3.3,0-6,2.7-6,6v14.1h-7.7c-5.9,0-12-2-18.8-6.1c-0.7-1.5-1.3-3.1-1.8-4.7
	c-3-8.9-8.5-25.4-30.7-25.4h-28.8V156c38.5-10.2,63.5-47.4,58.4-86.9C392,29.6,358.3,0,318.4,0s-73.5,29.6-78.7,69.1
	c-5.1,39.5,19.9,76.7,58.4,86.9v24.7h-36.7c-3.3,0-6,2.7-6,6v0.6c0,15.7,6.6,27.6,17.3,33c-7.2,1.7-13,7.3-14.9,14.5
	c-1.9,7.2,0.3,14.9,5.7,20c-4.1,4.1-6.4,9.7-6.4,15.6c0.1,5.8,2.4,11.4,6.6,15.4c-4.9,4.6-7.3,11.3-6.5,18
	c0.8,6.7,4.8,12.6,10.6,15.9c-4.5,6.5-5,14.9-1.3,21.9c3.7,7,10.9,11.3,18.8,11.3H330c16.9,0,33.3-0.8,48-9.9
	c12.5-7.8,27-11.9,41.7-11.9h6.6v11.8c0,3.3,2.7,6,6,6H487c3.3,0,6-2.7,6-6V202.9C493,199.6,490.3,196.9,487,196.9z M318.4,158.6
	c2.8,0,5.5-0.1,8.3-0.4v61.5h-16.5v-61.5C312.9,158.5,315.7,158.6,318.4,158.6z M251.1,79.3c0-35.4,27.4-64.7,62.7-67.2
	s66.5,22.9,71.3,57.9c4.9,35-18.2,67.9-52.8,75.2c-19.9,4.2-40.5-0.8-56.3-13.6C260.2,118.8,251.1,99.6,251.1,79.3z M298.2,192.7
	v18.6h-11.9c-13.5,0-17.4-11-18.4-18.6H298.2z M419.7,319c-17,0-33.6,4.7-48,13.7c-12,7.5-26.6,8.1-41.7,8.1h-44.5
	c-3.3,0-6.4-1.7-8.1-4.6c-1.7-2.9-1.7-6.4,0-9.3c1.7-2.9,4.7-4.6,8.1-4.6h24c3.3,0,6-2.7,6-6s-2.7-6-6-6h-31c-3.3,0-6.4-1.7-8.1-4.6
	c-1.7-2.9-1.7-6.5,0-9.3c1.7-2.9,4.8-4.7,8.1-4.6H300c3.3,0,6-2.7,6-6s-2.7-6-6-6h-21c-5.4-0.1-9.7-4.4-9.7-9.8s4.3-9.7,9.7-9.8h21
	c3.3,0,6-2.7,6-6c0-3.3-2.7-6-6-6h-8.5c-0.3,0-0.6-0.1-0.9-0.1h-13.2c-4.5-0.1-8.2-3.8-8.2-8.3c0-4.5,3.7-8.3,8.2-8.3h55.2
	c9.1,0,16.7-6.8,17.7-15.9c0.3-3.1-1.8-5.9-4.8-6.5c-3-0.6-6,1.2-6.9,4.2v-20.8h28.8c12.6,0,16,7.1,19.3,17.2
	c1.5,4.6,2.9,8.6,6.3,10.8c8.9,5.5,17.2,8.2,25.6,8.2h7.7V319H419.7z M481,336.8h-42.7V208.8H481V336.8z"/>
<path class="st0" d="M170.4,246.5l41.5-41.5c1.5-1.5,2.1-3.7,1.6-5.8s-2.2-3.7-4.3-4.3c-2.1-0.6-4.3,0.1-5.8,1.6l-37.2,37.2
	l-16.5-16.5c-1.5-1.5-3.7-2.2-5.8-1.6c-2.1,0.5-3.7,2.2-4.3,4.3c-0.5,2.1,0.1,4.3,1.6,5.8l20.7,20.7
	C164.3,248.8,168.1,248.8,170.4,246.5z"/>
<path class="st0" d="M335.7,105.1c2.3,2.3,6.1,2.3,8.4,0c2.3-2.3,2.3-6.1,0-8.4l-17.3-17.3L344.2,62c2.3-2.3,2.3-6.1,0-8.4
	c-2.3-2.3-6.1-2.3-8.4,0l-17.3,17.3l-17.3-17.3c-1.5-1.5-3.7-2.1-5.8-1.6c-2.1,0.6-3.7,2.2-4.3,4.3c-0.6,2.1,0.1,4.3,1.6,5.8
	L310,79.3l-17.3,17.3c-1.5,1.5-2.1,3.7-1.6,5.8c0.6,2.1,2.2,3.7,4.3,4.3c2.1,0.5,4.3-0.1,5.8-1.6l17.3-17.3L335.7,105.1z"/>
</svg>
