<?xml version="1.0" encoding="utf-8"?>
<!-- Generator: Adobe Illustrator 23.0.0, SVG Export Plug-In . SVG Version: 6.00 Build 0)  -->
<svg version="1.1" id="Capa_1" xmlns="http://www.w3.org/2000/svg" xmlns:xlink="http://www.w3.org/1999/xlink" x="0px" y="0px"
	 viewBox="0 0 60 60" style="enable-background:new 0 0 60 60;" xml:space="preserve">
<style type="text/css">
	.st0{fill:#FFFFFF;}
</style>
<g>
	<path class="st0" d="M38.9,0H6.5v60h47V14.6L38.9,0z M39.5,3.4L50.1,14H39.5V3.4z M8.5,58V2h29v14h14v42H8.5z"/>
	<path class="st0" d="M42.5,21h-16c-0.6,0-1,0.4-1,1s0.4,1,1,1h16c0.6,0,1-0.4,1-1S43.1,21,42.5,21z"/>
	<path class="st0" d="M22.9,18.2l-4.3,3.4l-1.4-1.4c-0.4-0.4-1-0.4-1.4,0s-0.4,1,0,1.4l2,2c0.2,0.2,0.5,0.3,0.7,0.3
		c0.2,0,0.4-0.1,0.6-0.2l5-4c0.4-0.3,0.5-1,0.2-1.4C23.9,17.9,23.3,17.9,22.9,18.2z"/>
	<path class="st0" d="M42.5,32h-16c-0.6,0-1,0.4-1,1s0.4,1,1,1h16c0.6,0,1-0.4,1-1S43.1,32,42.5,32z"/>
	<path class="st0" d="M22.9,29.2l-4.3,3.4l-1.4-1.4c-0.4-0.4-1-0.4-1.4,0s-0.4,1,0,1.4l2,2c0.2,0.2,0.5,0.3,0.7,0.3
		c0.2,0,0.4-0.1,0.6-0.2l5-4c0.4-0.3,0.5-1,0.2-1.4C23.9,28.9,23.3,28.9,22.9,29.2z"/>
	<path class="st0" d="M42.5,43h-16c-0.6,0-1,0.4-1,1s0.4,1,1,1h16c0.6,0,1-0.4,1-1S43.1,43,42.5,43z"/>
	<path class="st0" d="M22.9,40.2l-4.3,3.4l-1.4-1.4c-0.4-0.4-1-0.4-1.4,0s-0.4,1,0,1.4l2,2c0.2,0.2,0.5,0.3,0.7,0.3
		c0.2,0,0.4-0.1,0.6-0.2l5-4c0.4-0.3,0.5-1,0.2-1.4C23.9,39.9,23.3,39.9,22.9,40.2z"/>
</g>
</svg>
